# MagicaVoxel @ Ephtracy

# group
o 

# material
mtllib Player-6.mtl
usemtl palette

# normals
vn -1 0 0
vn 1 0 0
vn 0 0 1
vn 0 0 -1
vn 0 -1 0
vn 0 1 0

# texcoords
vt 0.0449219 0.5
vt 0.955078 0.5
vt 0.962891 0.5

# verts
v 5.4 3.2 0
v 5.4 3.2 -0.4
v 5.4 3.7 0
v 5.4 3.7 -0.4
v 5.5 3.1 0
v 5.5 3.1 -0.4
v 5.5 3.2 0
v 5.5 3.2 -0.4
v 5.5 3.7 0
v 5.5 3.7 -0.4
v 5.5 3.8 0
v 5.5 3.8 -0.4
v 5.6 2.9 -0.3
v 5.6 2.9 -0.4
v 5.6 3 0
v 5.6 3 -0.3
v 5.6 3 -0.4
v 5.6 3.1 0
v 5.6 3.1 -0.4
v 5.6 3.3 0
v 5.6 3.3 -0.1
v 5.6 3.4 0
v 5.6 3.4 -0.1
v 5.9 3.3 0
v 5.9 3.3 -0.1
v 5.9 3.5 0
v 5.9 3.5 -0.1
v 5.5 3.3 0
v 5.5 3.3 -0.1
v 5.5 3.5 0
v 5.5 3.5 -0.1
v 5.8 2.9 -0.3
v 5.8 2.9 -0.4
v 5.8 3 0
v 5.8 3 -0.3
v 5.8 3 -0.4
v 5.8 3.1 0
v 5.8 3.1 -0.4
v 5.8 3.3 0
v 5.8 3.3 -0.1
v 5.8 3.4 0
v 5.8 3.4 -0.1
v 5.9 3.1 0
v 5.9 3.1 -0.4
v 5.9 3.2 0
v 5.9 3.2 -0.4
v 5.9 3.7 0
v 5.9 3.7 -0.4
v 5.9 3.8 0
v 5.9 3.8 -0.4
v 6 3.2 0
v 6 3.2 -0.4
v 6 3.7 0
v 6 3.7 -0.4
v 5.4 3.2 0
v 5.4 3.7 0
v 5.5 3.1 0
v 5.5 3.2 0
v 5.5 3.3 0
v 5.5 3.5 0
v 5.5 3.7 0
v 5.5 3.8 0
v 5.6 3 0
v 5.6 3.1 0
v 5.6 3.3 0
v 5.6 3.4 0
v 5.8 3 0
v 5.8 3.1 0
v 5.8 3.3 0
v 5.8 3.4 0
v 5.9 3.1 0
v 5.9 3.2 0
v 5.9 3.3 0
v 5.9 3.5 0
v 5.9 3.7 0
v 5.9 3.8 0
v 6 3.2 0
v 6 3.7 0
v 5.5 3.3 -0.1
v 5.5 3.5 -0.1
v 5.6 3.3 -0.1
v 5.6 3.4 -0.1
v 5.8 3.3 -0.1
v 5.8 3.4 -0.1
v 5.9 3.3 -0.1
v 5.9 3.5 -0.1
v 5.6 2.9 -0.3
v 5.6 3 -0.3
v 5.8 2.9 -0.3
v 5.8 3 -0.3
v 5.4 3.2 -0.4
v 5.4 3.7 -0.4
v 5.5 3.1 -0.4
v 5.5 3.2 -0.4
v 5.5 3.7 -0.4
v 5.5 3.8 -0.4
v 5.6 2.9 -0.4
v 5.6 3 -0.4
v 5.6 3.1 -0.4
v 5.8 2.9 -0.4
v 5.8 3 -0.4
v 5.8 3.1 -0.4
v 5.9 3.1 -0.4
v 5.9 3.2 -0.4
v 5.9 3.7 -0.4
v 5.9 3.8 -0.4
v 6 3.2 -0.4
v 6 3.7 -0.4
v 5.6 2.9 -0.3
v 5.8 2.9 -0.3
v 5.6 2.9 -0.4
v 5.8 2.9 -0.4
v 5.6 3 0
v 5.8 3 0
v 5.6 3 -0.3
v 5.8 3 -0.3
v 5.5 3.1 0
v 5.6 3.1 0
v 5.8 3.1 0
v 5.9 3.1 0
v 5.5 3.1 -0.4
v 5.6 3.1 -0.4
v 5.8 3.1 -0.4
v 5.9 3.1 -0.4
v 5.4 3.2 0
v 5.5 3.2 0
v 5.9 3.2 0
v 6 3.2 0
v 5.4 3.2 -0.4
v 5.5 3.2 -0.4
v 5.9 3.2 -0.4
v 6 3.2 -0.4
v 5.5 3.5 0
v 5.9 3.5 0
v 5.5 3.5 -0.1
v 5.9 3.5 -0.1
v 5.5 3.3 0
v 5.6 3.3 0
v 5.8 3.3 0
v 5.9 3.3 0
v 5.5 3.3 -0.1
v 5.6 3.3 -0.1
v 5.8 3.3 -0.1
v 5.9 3.3 -0.1
v 5.6 3.4 0
v 5.8 3.4 0
v 5.6 3.4 -0.1
v 5.8 3.4 -0.1
v 5.4 3.7 0
v 5.5 3.7 0
v 5.9 3.7 0
v 6 3.7 0
v 5.4 3.7 -0.4
v 5.5 3.7 -0.4
v 5.9 3.7 -0.4
v 6 3.7 -0.4
v 5.5 3.8 0
v 5.9 3.8 0
v 5.5 3.8 -0.4
v 5.9 3.8 -0.4

# faces
f 3/2/1 2/2/1 1/2/1
f 4/2/1 2/2/1 3/2/1
f 7/2/1 6/2/1 5/2/1
f 8/2/1 6/2/1 7/2/1
f 11/2/1 10/2/1 9/2/1
f 12/2/1 10/2/1 11/2/1
f 16/3/1 14/3/1 13/3/1
f 17/3/1 14/3/1 16/3/1
f 18/2/1 16/2/1 15/2/1
f 18/2/1 17/2/1 16/2/1
f 19/2/1 17/2/1 18/2/1
f 22/2/1 21/2/1 20/2/1
f 23/2/1 21/2/1 22/2/1
f 26/2/1 25/2/1 24/2/1
f 27/2/1 25/2/1 26/2/1
f 28/2/2 29/2/2 30/2/2
f 30/2/2 29/2/2 31/2/2
f 32/3/2 33/3/2 35/3/2
f 35/3/2 33/3/2 36/3/2
f 34/2/2 35/2/2 37/2/2
f 35/2/2 36/2/2 37/2/2
f 37/2/2 36/2/2 38/2/2
f 39/2/2 40/2/2 41/2/2
f 41/2/2 40/2/2 42/2/2
f 43/2/2 44/2/2 45/2/2
f 45/2/2 44/2/2 46/2/2
f 47/2/2 48/2/2 49/2/2
f 49/2/2 48/2/2 50/2/2
f 51/2/2 52/2/2 53/2/2
f 53/2/2 52/2/2 54/2/2
f 58/2/3 56/2/3 55/2/3
f 59/2/3 56/2/3 58/2/3
f 60/2/3 56/2/3 59/2/3
f 61/2/3 56/2/3 60/2/3
f 64/2/3 58/2/3 57/2/3
f 64/2/3 59/2/3 58/2/3
f 65/2/3 59/2/3 64/2/3
f 67/2/3 64/2/3 63/2/3
f 67/2/3 66/2/3 65/2/3
f 67/2/3 65/2/3 64/2/3
f 68/2/3 66/2/3 67/2/3
f 69/2/3 66/2/3 68/2/3
f 70/2/3 66/2/3 69/2/3
f 71/2/3 69/2/3 68/2/3
f 72/2/3 69/2/3 71/2/3
f 73/2/3 69/2/3 72/2/3
f 74/2/3 61/2/3 60/2/3
f 74/2/3 62/2/3 61/2/3
f 75/2/3 62/2/3 74/2/3
f 76/2/3 62/2/3 75/2/3
f 77/2/3 73/2/3 72/2/3
f 77/2/3 75/2/3 74/2/3
f 77/2/3 74/2/3 73/2/3
f 78/2/3 75/2/3 77/2/3
f 81/1/3 80/1/3 79/1/3
f 82/1/3 80/1/3 81/1/3
f 84/1/3 80/1/3 82/1/3
f 85/1/3 84/1/3 83/1/3
f 86/1/3 80/1/3 84/1/3
f 86/1/3 84/1/3 85/1/3
f 89/3/3 88/3/3 87/3/3
f 90/3/3 88/3/3 89/3/3
f 91/2/4 92/2/4 94/2/4
f 94/2/4 92/2/4 95/2/4
f 93/2/4 94/2/4 99/2/4
f 94/2/4 95/2/4 99/2/4
f 95/2/4 96/2/4 99/2/4
f 97/3/4 98/3/4 100/3/4
f 98/2/4 99/2/4 101/2/4
f 100/3/4 98/3/4 101/3/4
f 99/2/4 96/2/4 102/2/4
f 101/2/4 99/2/4 102/2/4
f 102/2/4 96/2/4 103/2/4
f 103/2/4 96/2/4 104/2/4
f 104/2/4 96/2/4 105/2/4
f 105/2/4 96/2/4 106/2/4
f 104/2/4 105/2/4 107/2/4
f 107/2/4 105/2/4 108/2/4
f 111/3/5 110/3/5 109/3/5
f 112/3/5 110/3/5 111/3/5
f 115/2/5 114/2/5 113/2/5
f 116/2/5 114/2/5 115/2/5
f 121/2/5 118/2/5 117/2/5
f 122/2/5 118/2/5 121/2/5
f 123/2/5 120/2/5 119/2/5
f 124/2/5 120/2/5 123/2/5
f 129/2/5 126/2/5 125/2/5
f 130/2/5 126/2/5 129/2/5
f 131/2/5 128/2/5 127/2/5
f 132/2/5 128/2/5 131/2/5
f 135/2/5 134/2/5 133/2/5
f 136/2/5 134/2/5 135/2/5
f 137/2/6 138/2/6 141/2/6
f 141/2/6 138/2/6 142/2/6
f 139/2/6 140/2/6 143/2/6
f 143/2/6 140/2/6 144/2/6
f 145/2/6 146/2/6 147/2/6
f 147/2/6 146/2/6 148/2/6
f 149/2/6 150/2/6 153/2/6
f 153/2/6 150/2/6 154/2/6
f 151/2/6 152/2/6 155/2/6
f 155/2/6 152/2/6 156/2/6
f 157/2/6 158/2/6 159/2/6
f 159/2/6 158/2/6 160/2/6
